<svg width="48" height="45" viewBox="0 0 48 45" fill="none" xmlns="http://www.w3.org/2000/svg">
<path d="M47.8621 38.1013V23.4317C47.8621 21.5739 47.1144 19.7955 45.7777 18.4928L28.8086 1.95406C26.1352 -0.651353 21.8646 -0.651353 19.1912 1.95406L2.22203 18.4928C0.885335 19.7955 0.137695 21.5739 0.137695 23.4317V38.1013C0.137695 41.9075 3.21888 45 7.03637 45H40.9747C44.7809 45 47.8621 41.9188 47.8621 38.1013Z" fill="#6301CC"/>
<path fill-rule="evenodd" clip-rule="evenodd" d="M30.767 28.5176C31.2201 27.9739 31.9904 27.634 33.0439 27.634C35.434 27.634 37.02 29.4125 37.02 31.916C37.02 34.4987 35.6719 36.0167 33.2704 36.1639C32.3529 36.2092 31.2654 35.926 30.5631 35.1331L30.4271 36.0167H27.7084V24.4056H30.7556V28.5176H30.767ZM30.699 32.0066C30.699 32.8675 31.3107 33.7171 32.3415 33.7171C33.2591 33.7171 33.9841 33.0714 33.9841 31.9273C33.9841 30.7832 33.2591 30.1148 32.3415 30.1148C31.2654 30.1148 30.699 31.0097 30.699 32.0066ZM9.89085 28.6992V24.4059H6.79834V35.9943H9.8682V31.6671C9.89085 30.7155 10.5479 30.2624 11.1482 30.2624C11.76 30.2624 12.2244 30.5456 12.2584 31.4745V36.0057H15.2943V31.4632C15.2943 28.7105 13.731 27.6344 12.0771 27.6344C11.1029 27.6344 10.4686 27.9515 9.89085 28.6992ZM25.919 27.8266H23.0531L22.8832 28.6988C22.4527 28.0305 21.6484 27.634 20.4816 27.634C18.1028 27.634 16.5056 29.4918 16.5056 31.9159C16.5056 34.3061 17.8536 36.0166 20.2551 36.1639C21.1726 36.2092 22.2601 35.926 22.9624 35.1331L23.0984 36.0166H25.919V27.8266ZM21.1953 33.7058C20.2777 33.7058 19.5528 33.0601 19.5528 31.9159C19.5528 30.7718 20.2891 30.1148 21.1953 30.1035C22.2714 30.1035 22.8832 30.8171 22.8832 31.9159C22.8832 32.8788 22.2261 33.7058 21.1953 33.7058ZM41.4501 27.9515V36.0169H38.3802V27.9515H41.4501Z" fill="white"/>
<path d="M39.9669 9.18169C41.2307 9.18169 42.2552 8.15721 42.2552 6.89346C42.2552 5.6297 41.2307 4.60522 39.9669 4.60522C38.7032 4.60522 37.6787 5.6297 37.6787 6.89346C37.6787 8.15721 38.7032 9.18169 39.9669 9.18169Z" fill="#FF5958"/>
</svg>
